<svg xmlns="http://www.w3.org/2000/svg" viewBox="0 0 95 42" fill="none">
  <!-- Gem mark (light bg) -->
  <g transform="translate(0, 3)">
    <path d="M6 2 H16 L20 9 H2 Z" fill="#2d6a96"/>
    <path d="M8 3.5 H14 L16.5 8 H5.5 Z" fill="#5ba4d9" opacity="0.25"/>
    <path d="M2 9 L11 31 L11 9 Z" fill="#1e5a82"/>
    <path d="M20 9 L11 31 L11 9 Z" fill="#2d6a96"/>
    <line x1="1.5" y1="9" x2="20.5" y2="9" stroke="#5ba4d9" stroke-width="0.5" opacity="0.5"/>
    <line x1="11" y1="2" x2="11" y2="31" stroke="#5ba4d9" stroke-width="0.35" opacity="0.25"/>
  </g>
  <!-- Wordmark (outlined Instrument Serif 400) -->
  <g fill="#0f172a" transform="translate(32, 2)">
    <path d="M34 0Q19 0 19 11Q19 20 32 23L55 27Q76 31 82.5 38.0Q89 45 89 66V654Q89 675 82.5 682.0Q76 689 55 693L32 697Q19 700 19 709Q19 720 34 720H356Q379 720 381 697L389 531Q391 514 376 514Q364 514 362 527L357 560Q349 612 329.0 641.0Q309 670 284.0 682.5Q259 695 236 695Q192 695 176.0 681.0Q160 667 160 638V402Q160 388 174 388H209Q253 388 263 435L274 485Q277 498 289 498Q301 498 301 481V256Q301 239 289 239Q277 239 274 252L263 301Q256 336 243.5 347.0Q231 358 208 358H174Q160 358 160 344V71Q160 50 166.5 41.5Q173 33 194 30L241 23Q252 21 252 12Q252 0 237 0Z" transform="translate(0.00, 31.68) scale(0.032000, -0.032000)"/>
    <path d="M120 -9Q78 -9 51.0 17.5Q24 44 24 88Q24 131 51.0 169.5Q78 208 125.0 239.0Q172 270 232 289Q245 293 245 306V397Q245 445 230.0 465.5Q215 486 189 486Q164 486 143.5 463.5Q123 441 114 388Q109 356 92.5 341.5Q76 327 59 327Q31 327 31 355Q31 384 47.5 412.5Q64 441 91.0 464.5Q118 488 150.0 502.0Q182 516 214 516Q313 516 313 401V95Q313 53 334 53Q347 53 358.0 70.5Q369 88 369 130Q369 146 382 146Q394 146 394 129Q394 56 368.5 23.5Q343 -9 311 -9Q287 -9 273.0 10.5Q259 30 254 57Q253 67 245.5 67.5Q238 68 231 58Q207 25 182.0 8.0Q157 -9 120 -9ZM147 37Q173 37 195.0 55.5Q217 74 231.0 105.0Q245 136 245 175V248Q245 267 224 259Q163 237 129.5 198.5Q96 160 96 106Q96 37 147 37Z" transform="translate(14.02, 31.68) scale(0.032000, -0.032000)"/>
    <path d="M180 -9Q136 -9 100.5 20.5Q65 50 44.0 105.0Q23 160 23 236Q23 321 48.5 384.0Q74 447 118.0 481.5Q162 516 216 516Q262 516 288 498Q298 491 298 476L300 354Q300 339 288 339Q277 339 274 352Q260 407 247.0 437.0Q234 467 220.0 478.5Q206 490 189 490Q169 490 147.5 467.0Q126 444 111.5 392.5Q97 341 97 257Q97 150 124.5 96.0Q152 42 196 42Q231 42 254.5 71.0Q278 100 295 176Q298 187 307 187Q319 187 316 167Q305 97 285.5 58.5Q266 20 239.5 5.5Q213 -9 180 -9Z" transform="translate(27.74, 31.68) scale(0.032000, -0.032000)"/>
    <path d="M192 -9Q144 -9 106.0 23.0Q68 55 45.5 113.5Q23 172 23 249Q23 328 46.0 388.0Q69 448 109.0 482.0Q149 516 198 516Q257 516 293.5 467.5Q330 419 330 310Q330 277 305 277H115Q95 277 95 254Q95 148 126.0 95.0Q157 42 205 42Q243 42 267.0 69.0Q291 96 306 160Q309 171 319 171Q331 171 328 151Q312 62 277.0 26.5Q242 -9 192 -9ZM112 302H213Q261 302 261 352Q261 417 245.0 454.0Q229 491 197 491Q158 491 131.5 446.0Q105 401 97 318Q95 302 112 302Z" transform="translate(39.55, 31.68) scale(0.032000, -0.032000)"/>
    <path d="M147 -9Q112 -9 89.5 15.5Q67 40 67 96V470Q67 482 55 482H26Q10 482 10 494Q10 502 19 508Q52 531 72.0 557.5Q92 584 107 630Q114 651 124 651Q135 651 135 635V524Q135 510 149 510H214Q230 510 230 496Q230 482 214 482H149Q135 482 135 468V95Q135 73 142.0 60.5Q149 48 168 48Q189 48 202.5 69.0Q216 90 220 137Q222 151 233 151Q245 151 245 136Q242 59 213.5 25.0Q185 -9 147 -9Z" transform="translate(51.87, 31.68) scale(0.032000, -0.032000)"/>
  </g>
</svg>
